<svg xmlns="http://www.w3.org/2000/svg" viewBox="0 0 1024 1024"><defs><style>.cls-1{fill:#ff4800;}.cls-2{opacity:0;}.cls-11,.cls-12,.cls-13,.cls-14,.cls-15,.cls-16,.cls-3,.cls-5,.cls-7,.cls-9{fill:none;stroke:#ff4800;stroke-miterlimit:10;}.cls-3{stroke-width:1.01px;stroke-dasharray:3.62 14.48;}.cls-4{opacity:0.11;}.cls-5{stroke-width:1.8px;stroke-dasharray:5.21 12.82;}.cls-6{opacity:0.22;}.cls-7{stroke-width:2.59px;stroke-dasharray:6.83 11.24;}.cls-8{opacity:0.33;}.cls-9{stroke-width:3.37px;stroke-dasharray:8.45 9.66;}.cls-10{opacity:0.44;}.cls-11{stroke-width:4.16px;stroke-dasharray:10.03 8.02;}.cls-12{stroke-width:4.95px;stroke-dasharray:11.65 6.43;opacity:0.56;}.cls-13{stroke-width:5.74px;stroke-dasharray:13.25 4.82;opacity:0.67;}.cls-14{stroke-width:6.52px;stroke-dasharray:14.86 3.21;opacity:0.78;}.cls-15{stroke-width:7.31px;stroke-dasharray:16.46 1.61;opacity:0.89;}.cls-16{stroke-width:8.1px;}</style></defs><g id="WRK"><path class="cls-1" d="M181.57,412h3c9.63,0,32.57-.69,44.27-.69,64.22,0,90.14,36.93,90.14,79.36,0,45.19-30.73,82.35-92,82.35-9.63,0-27.52-.46-42.2-.46h-3.21Zm28.21,26.37V546.22c7.8.46,14.22.46,18.12.46,38.77,0,61.25-22,61.25-56,0-32.34-22.48-53-60.79-53C221.71,437.73,216.2,438,209.78,438.41Z"/><path class="cls-1" d="M340.66,469.38H367V572.6H340.66Z"/><path class="cls-1" d="M394.33,452.64c0-28.68,13.77-43.13,36.7-43.13,12.39,0,23.63,4.13,28.91,9.64L451,439.33c-3.44-3.44-9.17-5-15.14-5-8.94,0-15.14,6.19-15.14,20.41v14.68h28v24.77h-28V572.6H394.33Z"/><path class="cls-1" d="M468.89,452.64c0-28.68,13.76-43.13,36.7-43.13,12.38,0,23.62,4.13,28.9,9.64l-9,20.18c-3.44-3.44-9.17-5-15.14-5-8.94,0-15.14,6.19-15.14,20.41v14.68h28v24.77h-28V572.6H468.89Z"/><path class="cls-1" d="M635.64,572.6H609.27V560c-6.2,7.57-17,15.13-33,15.13-20.19,0-36.25-13.07-36.25-42.66V469.38h26.38V527c0,13.76,5.28,23.62,19.73,23.62,8.72,0,17.2-4.82,23.17-12.61V469.38h26.37Z"/><path class="cls-1" d="M654.75,498.28c0-20.18,16.52-31.42,37.85-31.42,19.95,0,32.8,7.11,39.22,13.07L722,498.74c-6.2-4.82-17-9.86-28-9.86-8,0-12.84,4.36-12.84,8.94,0,17.21,55.74,7.8,55.74,44.27,0,20.42-16.52,33-41.75,33-19,0-38.3-10.32-43.12-17.66l12.84-17.2c6.2,6.65,21.79,12.84,32.12,12.84,7.57,0,13.53-3.21,13.53-9.63C710.49,526.73,654.75,535.9,654.75,498.28Z"/><path class="cls-1" d="M844,562.28c-10.32,8.72-25,12.84-39.45,12.84-33.26,0-55.51-21.56-55.51-54.13,0-30.05,20.64-54.13,54.59-54.13,26.61,0,48.86,19,48.86,47.94,0,6.42-.46,10.32-1.61,14.22H776.36c2.3,15.6,14.68,24.08,31,24.08,12.62,0,23.17-4.58,29.13-9.4Zm-68.58-50.92h50.69c.23-12.62-8.49-22.48-23.63-22.48C786.69,488.88,778.2,497.82,775.45,511.36Z"/><path class="cls-1" d="M352.38,462.47a33.42,33.42,0,1,1,33.42-33.42A33.46,33.46,0,0,1,352.38,462.47Zm0-47.72a14.3,14.3,0,1,0,14.31,14.3A14.32,14.32,0,0,0,352.38,414.75Z"/><g class="cls-2"><path class="cls-3" d="M361.28,1003.16c94.09,25.69,176.31,26.51,247,12.7,79.89-15.62,145.06-49.66,195.76-82.76,58.07-37.91,120.83-105.78,162.71-184.7A489.92,489.92,0,0,0,1024,519.68C1024.1,323.38,927.37,170,780,76A491.07,491.07,0,0,0,487.33.07C383.43,6.11,281.75,44.73,204,102.34,121.4,163.55,58.86,248.86,26.2,346.4,2.37,417.58-4.28,494.75,2.52,576.36,18.64,769.8,186.25,955.35,361.28,1003.16Z"/></g><g class="cls-4"><path class="cls-5" d="M489.74,13.16c-101,5.36-199.53,42.22-275.44,97.78C133.83,169.85,72.57,252.14,40,346.48,16.23,415.35,8.87,490.18,14.92,569.3,29.25,758.36,188,938.13,357.93,987.85c89.57,25.85,169.37,28.27,239.33,16,78.32-13.88,143.13-45.93,194.26-78.51,58.9-37.49,120.76-103.59,162.16-180.78a478.9,478.9,0,0,0,57-225.63c.09-189.89-93.83-339.83-236.85-431.14A480.1,480.1,0,0,0,489.74,13.16Z"/></g><g class="cls-6"><path class="cls-7" d="M492.15,26.24C394,30.94,298.68,66,224.59,119.55a479.3,479.3,0,0,0-170.78,227C30.09,413.11,22,485.61,27.32,562.23,39.86,746.93,189.65,921.5,354.57,972.55c85,26.3,162.45,30,231.66,19.27C663,979.67,727.44,949.62,779,917.57,838.71,880.49,899.68,816.16,940.6,740.7a467.9,467.9,0,0,0,56.72-222.55c.08-183.48-91-329.91-229.67-418.62A469.33,469.33,0,0,0,492.15,26.24Z"/></g><g class="cls-8"><path class="cls-9" d="M494.56,39.33c-95.33,4-187.41,37.35-259.68,88.82A467.31,467.31,0,0,0,67.61,346.63C44,410.88,35.18,481,39.72,555.16c10.74,180.33,151.64,349.32,311.5,402.09,80.41,26.54,155.51,31.76,224,22.55,75.18-10.41,139.28-38.46,191.26-70C827,873.15,887.09,810.58,927.52,736.86A457.12,457.12,0,0,0,984,517.38c.07-177.07-88.22-320-222.5-406.1A458.35,458.35,0,0,0,494.56,39.33Z"/></g><g class="cls-10"><path class="cls-11" d="M497,52.42c-92.47,3.35-181.36,34.91-251.8,84.33a455.33,455.33,0,0,0-163.76,210c-23.6,61.94-33.07,129.75-29.3,201.39,9,175.95,141,339.29,295.76,393.84,75.87,26.75,148.59,33.67,216.3,25.84,73.62-8.51,137.36-34.73,189.76-65.75,61.37-36.23,120.56-97,160.51-169a446.2,446.2,0,0,0,56.2-216.4C970.69,346,885.22,206.52,755.32,123A447.47,447.47,0,0,0,497,52.42Z"/></g><path class="cls-12" d="M499.38,65.5C409.76,68.19,324.08,98,255.46,145.36A443.3,443.3,0,0,0,95.22,346.79C71.67,406.41,61.49,471.89,64.51,541c7.17,171.59,130.32,329.18,280,385.61,71.35,26.9,141.66,35.42,208.63,29.12,72.05-6.77,135.43-31,188.26-61.49,62.2-35.81,120.49-94.84,160-165.11A435.49,435.49,0,0,0,957.3,515.84c0-164.25-82.62-300.18-208.14-381.07A436.72,436.72,0,0,0,499.38,65.5Z"/><path class="cls-13" d="M501.79,78.59a441.09,441.09,0,0,0-236,75.37A431.52,431.52,0,0,0,109,346.87C85.53,404.18,74.64,467.32,76.91,534c5.37,167.22,119.71,319,264.25,377.38,66.84,27,134.72,37.15,201,32.4,70.47-5,133.51-27.26,186.76-57.24,63-35.39,120.42-92.65,159.41-161.19A424.77,424.77,0,0,0,944,515.07c0-157.83-79.81-290.26-201-368.55A425.8,425.8,0,0,0,501.79,78.59Z"/><path class="cls-14" d="M504.2,91.68A425.06,425.06,0,0,0,276,162.57,419.77,419.77,0,0,0,122.82,347c-23.43,55-35,115.8-33.51,180C92.89,689.74,198.46,835.54,337.8,896a431.89,431.89,0,0,0,193.28,35.69c68.89-3.47,131.58-23.53,185.26-53,63.85-35,120.36-90.47,158.86-157.28A414.18,414.18,0,0,0,930.62,514.3c0-151.42-77-280.35-193.79-356A414.93,414.93,0,0,0,504.2,91.68Z"/><path class="cls-15" d="M506.61,104.76A408,408,0,0,0,136.62,347C113.25,399.71,101,458.18,101.71,519.83,103.5,678.3,200.37,818,334.45,880.73A411,411,0,0,0,703.81,871c64.67-34.55,120.29-88.28,158.3-153.36a403.49,403.49,0,0,0,55.17-204.08c0-145-74.21-270.44-186.61-343.52A404,404,0,0,0,506.61,104.76Z"/><circle class="cls-16" cx="509.02" cy="512.77" r="394.92"/></g></svg>